<?xml version="1.0" standalone="no"?>
<!DOCTYPE svg PUBLIC "-//W3C//DTD SVG 20010904//EN"
 "http://www.w3.org/TR/2001/REC-SVG-20010904/DTD/svg10.dtd">
<svg version="1.0" xmlns="http://www.w3.org/2000/svg"
 width="512.000000pt" height="512.000000pt" viewBox="0 0 512.000000 512.000000"
 preserveAspectRatio="xMidYMid meet">

<g transform="translate(0.000000,512.000000) scale(0.100000,-0.100000)"
fill="#000000" stroke="none">
<path d="M2446 4950 c-41 -13 -74 -48 -86 -89 -5 -20 -10 -80 -10 -133 l0 -98
-938 -2 c-877 -3 -940 -4 -965 -21 -15 -9 -35 -29 -44 -44 -17 -26 -18 -102
-18 -1324 l0 -1297 -58 -5 c-64 -6 -98 -23 -124 -64 -15 -23 -18 -51 -18 -178
0 -165 6 -185 62 -222 25 -17 81 -18 805 -21 428 -1 778 -5 778 -7 0 -3 -113
-143 -251 -312 -138 -168 -260 -321 -271 -340 -24 -40 -26 -89 -4 -130 15 -30
116 -117 165 -143 32 -17 82 -15 119 4 37 19 697 821 727 883 l20 42 235 1
236 0 10 -37 c10 -37 582 -852 645 -920 33 -35 79 -49 132 -39 43 8 180 107
195 141 14 31 16 84 3 118 -5 13 -122 182 -260 376 -138 194 -251 354 -251
356 0 3 346 6 768 7 847 3 796 -1 839 65 26 40 26 316 0 356 -25 39 -58 57
-113 63 l-49 6 0 1297 c0 1222 -1 1298 -18 1324 -9 15 -29 35 -44 44 -25 17
-88 18 -964 21 l-937 2 -3 118 c-4 127 -14 155 -66 189 -30 20 -198 29 -247
13z m184 -220 l0 -100 -75 0 -75 0 0 100 0 100 75 0 75 0 0 -100z m1970 -1500
l0 -1270 -2045 0 -2045 0 0 1270 0 1270 2045 0 2045 0 0 -1270z m180 -1535 l0
-115 -2235 0 -2235 0 0 115 0 115 2235 0 2235 0 0 -115z m-2590 -250 c0 -3
-149 -188 -331 -410 l-331 -405 -27 19 c-14 11 -41 32 -59 48 l-33 28 297 363
296 362 94 0 c52 0 94 -2 94 -5z m1209 -391 c155 -218 281 -397 279 -399 -62
-46 -120 -86 -122 -83 -2 1 -122 170 -266 373 -145 204 -285 400 -312 438
l-48 67 94 0 93 0 282 -396z"/>
<path d="M4368 3549 c-17 -9 -18 -36 -18 -325 l0 -314 25 -12 c19 -8 31 -8 50
0 l25 12 0 314 c0 301 -1 316 -19 326 -24 12 -41 12 -63 -1z"/>
</g>
</svg>
